<mxfile host="app.diagrams.net" agent="Mozilla/5.0 (Windows NT 10.0; Win64; x64) AppleWebKit/537.36 (KHTML, like Gecko) Chrome/134.0.0.0 Safari/537.36" version="26.1.1" pages="5">
  <diagram name="Página-1" id="XcL4QIkmYDauq56J79rG">
    <mxGraphModel dx="1042" dy="565" grid="0" gridSize="10" guides="0" tooltips="1" connect="0" arrows="0" fold="1" page="0" pageScale="1" pageWidth="827" pageHeight="1169" background="none" math="0" shadow="0">
      <root>
        <mxCell id="0" />
        <mxCell id="1" parent="0" />
        <mxCell id="Owjycysp9o71pxgoPEJs-14" value="Cliente" style="shape=umlActor;verticalLabelPosition=bottom;verticalAlign=top;html=1;outlineConnect=0;labelBackgroundColor=none;" parent="1" vertex="1">
          <mxGeometry x="120" y="410" width="50" height="120" as="geometry" />
        </mxCell>
        <mxCell id="Owjycysp9o71pxgoPEJs-26" value="Fazer Reserva" style="ellipse;whiteSpace=wrap;html=1;labelBackgroundColor=none;textDirection=ltr;" parent="1" vertex="1">
          <mxGeometry x="280" y="300" width="120" height="60" as="geometry" />
        </mxCell>
        <mxCell id="Owjycysp9o71pxgoPEJs-29" style="edgeStyle=orthogonalEdgeStyle;rounded=0;orthogonalLoop=1;jettySize=auto;html=1;exitX=0.5;exitY=1;exitDx=0;exitDy=0;labelBackgroundColor=none;fontColor=default;" parent="1" source="Owjycysp9o71pxgoPEJs-26" target="Owjycysp9o71pxgoPEJs-26" edge="1">
          <mxGeometry relative="1" as="geometry" />
        </mxCell>
        <mxCell id="Owjycysp9o71pxgoPEJs-38" value="Cancelar Reserva" style="ellipse;whiteSpace=wrap;html=1;" parent="1" vertex="1">
          <mxGeometry x="257" y="629" width="120" height="60" as="geometry" />
        </mxCell>
        <mxCell id="ykOEoufTQBpiFLr9Clof-1" value="" style="endArrow=none;html=1;rounded=0;entryX=0.195;entryY=0.177;entryDx=0;entryDy=0;entryPerimeter=0;" edge="1" parent="1" target="Owjycysp9o71pxgoPEJs-38">
          <mxGeometry width="50" height="50" relative="1" as="geometry">
            <mxPoint x="169" y="477" as="sourcePoint" />
            <mxPoint x="283" y="627" as="targetPoint" />
          </mxGeometry>
        </mxCell>
        <mxCell id="ykOEoufTQBpiFLr9Clof-2" value="" style="endArrow=none;html=1;rounded=0;entryX=0.043;entryY=0.713;entryDx=0;entryDy=0;entryPerimeter=0;" edge="1" parent="1" target="Owjycysp9o71pxgoPEJs-26">
          <mxGeometry width="50" height="50" relative="1" as="geometry">
            <mxPoint x="168" y="477" as="sourcePoint" />
            <mxPoint x="221" y="432" as="targetPoint" />
          </mxGeometry>
        </mxCell>
      </root>
    </mxGraphModel>
  </diagram>
  <diagram id="T0e-wKWB-jtV0oXCeaBq" name="Página-2">
    <mxGraphModel dx="1442" dy="1365" grid="0" gridSize="10" guides="1" tooltips="1" connect="1" arrows="1" fold="1" page="0" pageScale="1" pageWidth="827" pageHeight="1169" math="0" shadow="0">
      <root>
        <mxCell id="0" />
        <mxCell id="1" parent="0" />
        <mxCell id="GxAemJXF_QGfhOwOy-kH-1" value="Cliente" style="shape=umlActor;verticalLabelPosition=bottom;verticalAlign=top;html=1;outlineConnect=0;fillColor=#f8cecc;strokeColor=#b85450;" parent="1" vertex="1">
          <mxGeometry x="-189" y="-419" width="30" height="85" as="geometry" />
        </mxCell>
        <mxCell id="GxAemJXF_QGfhOwOy-kH-5" value="Banco" style="shape=umlActor;verticalLabelPosition=bottom;verticalAlign=top;html=1;outlineConnect=0;fillColor=#f8cecc;strokeColor=#b85450;" parent="1" vertex="1">
          <mxGeometry x="189" y="-419" width="30" height="85" as="geometry" />
        </mxCell>
        <mxCell id="GxAemJXF_QGfhOwOy-kH-6" value="Checar saldo" style="ellipse;whiteSpace=wrap;html=1;fillColor=#f8cecc;strokeColor=#b85450;" parent="1" vertex="1">
          <mxGeometry x="-44" y="-494" width="125" height="50" as="geometry" />
        </mxCell>
        <mxCell id="GxAemJXF_QGfhOwOy-kH-7" value="Depositar" style="ellipse;whiteSpace=wrap;html=1;fillColor=#f8cecc;strokeColor=#b85450;" parent="1" vertex="1">
          <mxGeometry x="-44" y="-433" width="125" height="50" as="geometry" />
        </mxCell>
        <mxCell id="GxAemJXF_QGfhOwOy-kH-8" value="Sacar" style="ellipse;whiteSpace=wrap;html=1;fillColor=#f8cecc;strokeColor=#b85450;" parent="1" vertex="1">
          <mxGeometry x="-44" y="-375" width="125" height="50" as="geometry" />
        </mxCell>
        <mxCell id="GxAemJXF_QGfhOwOy-kH-9" value="Transferir" style="ellipse;whiteSpace=wrap;html=1;fillColor=#f8cecc;strokeColor=#b85450;" parent="1" vertex="1">
          <mxGeometry x="-44" y="-314" width="125" height="50" as="geometry" />
        </mxCell>
        <mxCell id="GxAemJXF_QGfhOwOy-kH-12" value="" style="endArrow=none;html=1;rounded=0;entryX=0;entryY=0.5;entryDx=0;entryDy=0;" parent="1" target="GxAemJXF_QGfhOwOy-kH-6" edge="1">
          <mxGeometry width="50" height="50" relative="1" as="geometry">
            <mxPoint x="-157" y="-396" as="sourcePoint" />
            <mxPoint x="-107" y="-446" as="targetPoint" />
          </mxGeometry>
        </mxCell>
        <mxCell id="GxAemJXF_QGfhOwOy-kH-13" value="" style="endArrow=none;html=1;rounded=0;entryX=0;entryY=0.5;entryDx=0;entryDy=0;" parent="1" target="GxAemJXF_QGfhOwOy-kH-7" edge="1">
          <mxGeometry width="50" height="50" relative="1" as="geometry">
            <mxPoint x="-152" y="-392" as="sourcePoint" />
            <mxPoint x="-88" y="-403" as="targetPoint" />
          </mxGeometry>
        </mxCell>
        <mxCell id="GxAemJXF_QGfhOwOy-kH-15" value="" style="endArrow=none;html=1;rounded=0;entryX=0;entryY=0.5;entryDx=0;entryDy=0;" parent="1" target="GxAemJXF_QGfhOwOy-kH-8" edge="1">
          <mxGeometry width="50" height="50" relative="1" as="geometry">
            <mxPoint x="-149" y="-386" as="sourcePoint" />
            <mxPoint x="-86" y="-392" as="targetPoint" />
          </mxGeometry>
        </mxCell>
        <mxCell id="GxAemJXF_QGfhOwOy-kH-16" value="" style="endArrow=none;html=1;rounded=0;" parent="1" edge="1">
          <mxGeometry width="50" height="50" relative="1" as="geometry">
            <mxPoint x="-148" y="-380" as="sourcePoint" />
            <mxPoint x="-45" y="-296" as="targetPoint" />
          </mxGeometry>
        </mxCell>
        <mxCell id="GxAemJXF_QGfhOwOy-kH-17" value="" style="endArrow=none;html=1;rounded=0;exitX=1;exitY=0.5;exitDx=0;exitDy=0;" parent="1" source="GxAemJXF_QGfhOwOy-kH-6" edge="1">
          <mxGeometry width="50" height="50" relative="1" as="geometry">
            <mxPoint x="135" y="-362" as="sourcePoint" />
            <mxPoint x="188" y="-395" as="targetPoint" />
          </mxGeometry>
        </mxCell>
        <mxCell id="GxAemJXF_QGfhOwOy-kH-18" value="" style="endArrow=none;html=1;rounded=0;exitX=1;exitY=0.5;exitDx=0;exitDy=0;" parent="1" source="GxAemJXF_QGfhOwOy-kH-7" edge="1">
          <mxGeometry width="50" height="50" relative="1" as="geometry">
            <mxPoint x="124" y="-331" as="sourcePoint" />
            <mxPoint x="187" y="-392" as="targetPoint" />
          </mxGeometry>
        </mxCell>
        <mxCell id="GxAemJXF_QGfhOwOy-kH-19" value="" style="endArrow=none;html=1;rounded=0;exitX=1;exitY=0.5;exitDx=0;exitDy=0;" parent="1" source="GxAemJXF_QGfhOwOy-kH-8" edge="1">
          <mxGeometry width="50" height="50" relative="1" as="geometry">
            <mxPoint x="141" y="-333" as="sourcePoint" />
            <mxPoint x="191" y="-383" as="targetPoint" />
          </mxGeometry>
        </mxCell>
        <mxCell id="GxAemJXF_QGfhOwOy-kH-20" value="" style="endArrow=none;html=1;rounded=0;exitX=1;exitY=0.5;exitDx=0;exitDy=0;" parent="1" source="GxAemJXF_QGfhOwOy-kH-9" edge="1">
          <mxGeometry width="50" height="50" relative="1" as="geometry">
            <mxPoint x="112" y="-279" as="sourcePoint" />
            <mxPoint x="188" y="-375" as="targetPoint" />
          </mxGeometry>
        </mxCell>
        <mxCell id="GxAemJXF_QGfhOwOy-kH-21" value="Técnico" style="shape=umlActor;verticalLabelPosition=bottom;verticalAlign=top;html=1;outlineConnect=0;fillColor=#f8cecc;strokeColor=#b85450;" parent="1" vertex="1">
          <mxGeometry x="-189" y="-197" width="30" height="85" as="geometry" />
        </mxCell>
        <mxCell id="GxAemJXF_QGfhOwOy-kH-22" value="Manutenção" style="ellipse;whiteSpace=wrap;html=1;fillColor=#f8cecc;strokeColor=#b85450;" parent="1" vertex="1">
          <mxGeometry x="-44" y="-218" width="125" height="50" as="geometry" />
        </mxCell>
        <mxCell id="GxAemJXF_QGfhOwOy-kH-23" value="Reparo" style="ellipse;whiteSpace=wrap;html=1;fillColor=#f8cecc;strokeColor=#b85450;" parent="1" vertex="1">
          <mxGeometry x="-44" y="-152" width="125" height="50" as="geometry" />
        </mxCell>
        <mxCell id="GxAemJXF_QGfhOwOy-kH-24" value="" style="endArrow=none;html=1;rounded=0;exitX=0.995;exitY=0.232;exitDx=0;exitDy=0;exitPerimeter=0;" parent="1" source="GxAemJXF_QGfhOwOy-kH-22" edge="1">
          <mxGeometry width="50" height="50" relative="1" as="geometry">
            <mxPoint x="127" y="-252" as="sourcePoint" />
            <mxPoint x="188" y="-360" as="targetPoint" />
          </mxGeometry>
        </mxCell>
        <mxCell id="GxAemJXF_QGfhOwOy-kH-25" value="" style="endArrow=none;html=1;rounded=0;exitX=1.053;exitY=0.36;exitDx=0;exitDy=0;exitPerimeter=0;" parent="1" source="GxAemJXF_QGfhOwOy-kH-23" edge="1">
          <mxGeometry width="50" height="50" relative="1" as="geometry">
            <mxPoint x="128" y="-207" as="sourcePoint" />
            <mxPoint x="187" y="-349" as="targetPoint" />
          </mxGeometry>
        </mxCell>
        <mxCell id="GxAemJXF_QGfhOwOy-kH-26" value="" style="endArrow=none;html=1;rounded=0;" parent="1" edge="1">
          <mxGeometry width="50" height="50" relative="1" as="geometry">
            <mxPoint x="-152" y="-164" as="sourcePoint" />
            <mxPoint x="-40" y="-188" as="targetPoint" />
          </mxGeometry>
        </mxCell>
        <mxCell id="GxAemJXF_QGfhOwOy-kH-27" value="" style="endArrow=none;html=1;rounded=0;entryX=0;entryY=0.5;entryDx=0;entryDy=0;" parent="1" target="GxAemJXF_QGfhOwOy-kH-23" edge="1">
          <mxGeometry width="50" height="50" relative="1" as="geometry">
            <mxPoint x="-147" y="-158" as="sourcePoint" />
            <mxPoint x="-71" y="-151" as="targetPoint" />
          </mxGeometry>
        </mxCell>
        <mxCell id="GxAemJXF_QGfhOwOy-kH-31" value="Sistema de Caixa Eletrônico" style="swimlane;startSize=0;verticalAlign=top;align=center;" parent="1" vertex="1">
          <mxGeometry x="-116" y="-541" width="278" height="470" as="geometry">
            <mxRectangle x="-116" y="-541" width="186" height="26" as="alternateBounds" />
          </mxGeometry>
        </mxCell>
      </root>
    </mxGraphModel>
  </diagram>
  <diagram id="zOeZtITVOc_Sd8JUuvYU" name="Página-3">
    <mxGraphModel dx="1303" dy="706" grid="0" gridSize="10" guides="1" tooltips="1" connect="1" arrows="1" fold="1" page="0" pageScale="1" pageWidth="827" pageHeight="1169" math="0" shadow="0">
      <root>
        <mxCell id="0" />
        <mxCell id="1" parent="0" />
        <mxCell id="Df3wSzDKpOP-La8-ANA0-1" value="" style="swimlane;startSize=0;" vertex="1" parent="1">
          <mxGeometry x="285" y="14" width="224" height="671" as="geometry" />
        </mxCell>
        <mxCell id="Df3wSzDKpOP-La8-ANA0-2" value="Sistema de reserva de Hotel" style="text;html=1;align=center;verticalAlign=middle;resizable=0;points=[];autosize=1;strokeColor=none;fillColor=none;" vertex="1" parent="Df3wSzDKpOP-La8-ANA0-1">
          <mxGeometry x="27.5" y="12" width="169" height="26" as="geometry" />
        </mxCell>
        <mxCell id="pBy_OBwKAm6baJK0ylYX-1" value="Checando as Reservas&amp;nbsp;" style="ellipse;whiteSpace=wrap;html=1;fillColor=#e51400;fontColor=#ffffff;strokeColor=#B20000;" vertex="1" parent="Df3wSzDKpOP-La8-ANA0-1">
          <mxGeometry x="48" y="45" width="125" height="50" as="geometry" />
        </mxCell>
        <mxCell id="RbDjLG0kdpUuMkSpV1bt-3" value="Fazendo Reserva" style="ellipse;whiteSpace=wrap;html=1;fillColor=#e51400;fontColor=#ffffff;strokeColor=#B20000;" vertex="1" parent="Df3wSzDKpOP-La8-ANA0-1">
          <mxGeometry x="50" y="103" width="125" height="50" as="geometry" />
        </mxCell>
        <mxCell id="RbDjLG0kdpUuMkSpV1bt-8" value="Leva as Malas" style="ellipse;whiteSpace=wrap;html=1;fillColor=#e51400;fontColor=#ffffff;strokeColor=#B20000;" vertex="1" parent="Df3wSzDKpOP-La8-ANA0-1">
          <mxGeometry x="48" y="369" width="125" height="50" as="geometry" />
        </mxCell>
        <mxCell id="PwlDaXp2jS-YRYsgwc6S-1" value="Confirmando a Reserva" style="ellipse;whiteSpace=wrap;html=1;fillColor=#e51400;fontColor=#ffffff;strokeColor=#B20000;" vertex="1" parent="Df3wSzDKpOP-La8-ANA0-1">
          <mxGeometry x="48" y="163" width="125" height="50" as="geometry" />
        </mxCell>
        <mxCell id="PwlDaXp2jS-YRYsgwc6S-4" value="Pagando Reserva&amp;nbsp;" style="ellipse;whiteSpace=wrap;html=1;fillColor=#e51400;fontColor=#ffffff;strokeColor=#B20000;" vertex="1" parent="Df3wSzDKpOP-La8-ANA0-1">
          <mxGeometry x="48" y="220" width="125" height="50" as="geometry" />
        </mxCell>
        <mxCell id="tSbmkxCZ0d735WplqzVH-3" value="Manutenções&amp;nbsp;" style="ellipse;whiteSpace=wrap;html=1;fillColor=#e51400;fontColor=#ffffff;strokeColor=#B20000;" vertex="1" parent="Df3wSzDKpOP-La8-ANA0-1">
          <mxGeometry x="48" y="433" width="125" height="50" as="geometry" />
        </mxCell>
        <mxCell id="C2UtIMHa39anaL1E7OLr-1" value="Concertos" style="ellipse;whiteSpace=wrap;html=1;fillColor=#e51400;fontColor=#ffffff;strokeColor=#B20000;" vertex="1" parent="Df3wSzDKpOP-La8-ANA0-1">
          <mxGeometry x="48" y="498" width="125" height="50" as="geometry" />
        </mxCell>
        <mxCell id="C2UtIMHa39anaL1E7OLr-4" value="Faxina" style="ellipse;whiteSpace=wrap;html=1;fillColor=#e51400;fontColor=#ffffff;strokeColor=#B20000;" vertex="1" parent="Df3wSzDKpOP-La8-ANA0-1">
          <mxGeometry x="48" y="302" width="125" height="50" as="geometry" />
        </mxCell>
        <mxCell id="BtpzoZKJI9H0tAGcX9OQ-5" value="Divulgações" style="ellipse;whiteSpace=wrap;html=1;fillColor=#e51400;fontColor=#ffffff;strokeColor=#B20000;" vertex="1" parent="Df3wSzDKpOP-La8-ANA0-1">
          <mxGeometry x="50" y="558" width="125" height="50" as="geometry" />
        </mxCell>
        <mxCell id="Df3wSzDKpOP-La8-ANA0-3" value="Cliente" style="shape=umlActor;verticalLabelPosition=bottom;verticalAlign=top;html=1;outlineConnect=0;fillColor=#f5f5f5;fontColor=#333333;strokeColor=#666666;" vertex="1" parent="1">
          <mxGeometry x="160" y="47" width="30" height="70" as="geometry" />
        </mxCell>
        <mxCell id="Df3wSzDKpOP-La8-ANA0-4" value="Hotel" style="shape=umlActor;verticalLabelPosition=bottom;verticalAlign=top;html=1;outlineConnect=0;fillColor=#f5f5f5;fontColor=#333333;strokeColor=#666666;" vertex="1" parent="1">
          <mxGeometry x="609" y="50" width="30" height="70" as="geometry" />
        </mxCell>
        <mxCell id="RbDjLG0kdpUuMkSpV1bt-1" value="" style="endArrow=none;html=1;rounded=0;entryX=0;entryY=0.5;entryDx=0;entryDy=0;" edge="1" parent="1" target="pBy_OBwKAm6baJK0ylYX-1">
          <mxGeometry width="50" height="50" relative="1" as="geometry">
            <mxPoint x="189" y="88" as="sourcePoint" />
            <mxPoint x="241" y="56" as="targetPoint" />
          </mxGeometry>
        </mxCell>
        <mxCell id="RbDjLG0kdpUuMkSpV1bt-2" value="" style="endArrow=none;html=1;rounded=0;exitX=1;exitY=0.5;exitDx=0;exitDy=0;" edge="1" parent="1" source="pBy_OBwKAm6baJK0ylYX-1" target="Df3wSzDKpOP-La8-ANA0-4">
          <mxGeometry width="50" height="50" relative="1" as="geometry">
            <mxPoint x="531" y="121" as="sourcePoint" />
            <mxPoint x="581" y="71" as="targetPoint" />
          </mxGeometry>
        </mxCell>
        <mxCell id="RbDjLG0kdpUuMkSpV1bt-4" value="" style="endArrow=none;html=1;rounded=0;entryX=0;entryY=0;entryDx=0;entryDy=0;" edge="1" parent="1" target="RbDjLG0kdpUuMkSpV1bt-3">
          <mxGeometry width="50" height="50" relative="1" as="geometry">
            <mxPoint x="186" y="88" as="sourcePoint" />
            <mxPoint x="255" y="120" as="targetPoint" />
          </mxGeometry>
        </mxCell>
        <mxCell id="RbDjLG0kdpUuMkSpV1bt-5" value="" style="endArrow=none;html=1;rounded=0;exitX=1;exitY=0;exitDx=0;exitDy=0;" edge="1" parent="1" source="RbDjLG0kdpUuMkSpV1bt-3">
          <mxGeometry width="50" height="50" relative="1" as="geometry">
            <mxPoint x="541" y="169" as="sourcePoint" />
            <mxPoint x="608" y="84" as="targetPoint" />
            <Array as="points" />
          </mxGeometry>
        </mxCell>
        <mxCell id="RbDjLG0kdpUuMkSpV1bt-6" value="Funcionários" style="shape=umlActor;verticalLabelPosition=bottom;verticalAlign=top;html=1;outlineConnect=0;fillColor=#f5f5f5;fontColor=#333333;strokeColor=#666666;" vertex="1" parent="1">
          <mxGeometry x="155" y="351" width="30" height="70" as="geometry" />
        </mxCell>
        <mxCell id="PwlDaXp2jS-YRYsgwc6S-2" value="" style="endArrow=none;html=1;rounded=0;entryX=0;entryY=0;entryDx=0;entryDy=0;" edge="1" parent="1" target="PwlDaXp2jS-YRYsgwc6S-1">
          <mxGeometry width="50" height="50" relative="1" as="geometry">
            <mxPoint x="186" y="91" as="sourcePoint" />
            <mxPoint x="279" y="88" as="targetPoint" />
          </mxGeometry>
        </mxCell>
        <mxCell id="PwlDaXp2jS-YRYsgwc6S-3" value="" style="endArrow=none;html=1;rounded=0;exitX=1;exitY=0;exitDx=0;exitDy=0;" edge="1" parent="1" source="PwlDaXp2jS-YRYsgwc6S-1">
          <mxGeometry width="50" height="50" relative="1" as="geometry">
            <mxPoint x="556" y="157" as="sourcePoint" />
            <mxPoint x="610" y="84" as="targetPoint" />
          </mxGeometry>
        </mxCell>
        <mxCell id="PwlDaXp2jS-YRYsgwc6S-5" value="" style="endArrow=none;html=1;rounded=0;entryX=0;entryY=0;entryDx=0;entryDy=0;" edge="1" parent="1" target="PwlDaXp2jS-YRYsgwc6S-4">
          <mxGeometry width="50" height="50" relative="1" as="geometry">
            <mxPoint x="185" y="92" as="sourcePoint" />
            <mxPoint x="290" y="155" as="targetPoint" />
          </mxGeometry>
        </mxCell>
        <mxCell id="PwlDaXp2jS-YRYsgwc6S-7" value="" style="endArrow=none;html=1;rounded=0;exitX=1;exitY=0;exitDx=0;exitDy=0;" edge="1" parent="1" source="PwlDaXp2jS-YRYsgwc6S-4">
          <mxGeometry width="50" height="50" relative="1" as="geometry">
            <mxPoint x="559" y="135" as="sourcePoint" />
            <mxPoint x="609" y="85" as="targetPoint" />
          </mxGeometry>
        </mxCell>
        <mxCell id="PwlDaXp2jS-YRYsgwc6S-10" value="" style="endArrow=none;html=1;rounded=0;entryX=0;entryY=0.5;entryDx=0;entryDy=0;" edge="1" parent="1" source="RbDjLG0kdpUuMkSpV1bt-6" target="RbDjLG0kdpUuMkSpV1bt-8">
          <mxGeometry width="50" height="50" relative="1" as="geometry">
            <mxPoint x="209" y="382" as="sourcePoint" />
            <mxPoint x="259" y="332" as="targetPoint" />
          </mxGeometry>
        </mxCell>
        <mxCell id="tSbmkxCZ0d735WplqzVH-2" value="Técnicos" style="shape=umlActor;verticalLabelPosition=bottom;verticalAlign=top;html=1;outlineConnect=0;fillColor=#f5f5f5;fontColor=#333333;strokeColor=#666666;" vertex="1" parent="1">
          <mxGeometry x="155" y="497" width="30" height="70" as="geometry" />
        </mxCell>
        <mxCell id="C2UtIMHa39anaL1E7OLr-2" value="" style="endArrow=none;html=1;rounded=0;entryX=0;entryY=0.5;entryDx=0;entryDy=0;exitX=0.5;exitY=0.5;exitDx=0;exitDy=0;exitPerimeter=0;" edge="1" parent="1" source="tSbmkxCZ0d735WplqzVH-2" target="tSbmkxCZ0d735WplqzVH-3">
          <mxGeometry width="50" height="50" relative="1" as="geometry">
            <mxPoint x="185" y="489" as="sourcePoint" />
            <mxPoint x="226" y="516" as="targetPoint" />
          </mxGeometry>
        </mxCell>
        <mxCell id="C2UtIMHa39anaL1E7OLr-3" value="" style="endArrow=none;html=1;rounded=0;entryX=0;entryY=0.5;entryDx=0;entryDy=0;exitX=0.5;exitY=0.5;exitDx=0;exitDy=0;exitPerimeter=0;" edge="1" parent="1" source="tSbmkxCZ0d735WplqzVH-2" target="C2UtIMHa39anaL1E7OLr-1">
          <mxGeometry width="50" height="50" relative="1" as="geometry">
            <mxPoint x="185" y="486" as="sourcePoint" />
            <mxPoint x="273" y="559" as="targetPoint" />
          </mxGeometry>
        </mxCell>
        <mxCell id="C2UtIMHa39anaL1E7OLr-5" value="" style="endArrow=none;html=1;rounded=0;entryX=0;entryY=0.5;entryDx=0;entryDy=0;" edge="1" parent="1" source="RbDjLG0kdpUuMkSpV1bt-6" target="C2UtIMHa39anaL1E7OLr-4">
          <mxGeometry width="50" height="50" relative="1" as="geometry">
            <mxPoint x="186" y="330" as="sourcePoint" />
            <mxPoint x="235" y="329" as="targetPoint" />
          </mxGeometry>
        </mxCell>
        <mxCell id="JYx_l7oWjbXShMjlSQoJ-1" value="" style="endArrow=none;html=1;rounded=0;exitX=1;exitY=0;exitDx=0;exitDy=0;" edge="1" parent="1" source="C2UtIMHa39anaL1E7OLr-4">
          <mxGeometry width="50" height="50" relative="1" as="geometry">
            <mxPoint x="435.99948757384027" y="500.55138620002845" as="sourcePoint" />
            <mxPoint x="605.74" y="84" as="targetPoint" />
          </mxGeometry>
        </mxCell>
        <mxCell id="JYx_l7oWjbXShMjlSQoJ-2" value="" style="endArrow=none;html=1;rounded=0;exitX=1;exitY=0;exitDx=0;exitDy=0;" edge="1" parent="1" source="RbDjLG0kdpUuMkSpV1bt-8">
          <mxGeometry width="50" height="50" relative="1" as="geometry">
            <mxPoint x="448" y="437" as="sourcePoint" />
            <mxPoint x="607" y="87" as="targetPoint" />
          </mxGeometry>
        </mxCell>
        <mxCell id="BtpzoZKJI9H0tAGcX9OQ-1" value="" style="endArrow=none;html=1;rounded=0;exitX=0.937;exitY=0.327;exitDx=0;exitDy=0;exitPerimeter=0;" edge="1" parent="1" source="tSbmkxCZ0d735WplqzVH-3">
          <mxGeometry width="50" height="50" relative="1" as="geometry">
            <mxPoint x="599" y="254" as="sourcePoint" />
            <mxPoint x="609" y="93" as="targetPoint" />
          </mxGeometry>
        </mxCell>
        <mxCell id="BtpzoZKJI9H0tAGcX9OQ-2" value="" style="endArrow=none;html=1;rounded=0;exitX=0.962;exitY=0.249;exitDx=0;exitDy=0;exitPerimeter=0;" edge="1" parent="1" source="C2UtIMHa39anaL1E7OLr-1">
          <mxGeometry width="50" height="50" relative="1" as="geometry">
            <mxPoint x="602" y="225" as="sourcePoint" />
            <mxPoint x="607" y="95" as="targetPoint" />
          </mxGeometry>
        </mxCell>
        <mxCell id="BtpzoZKJI9H0tAGcX9OQ-6" value="Marketing" style="shape=umlActor;verticalLabelPosition=bottom;verticalAlign=top;html=1;outlineConnect=0;" vertex="1" parent="1">
          <mxGeometry x="573" y="497" width="30" height="70" as="geometry" />
        </mxCell>
        <mxCell id="BtpzoZKJI9H0tAGcX9OQ-7" value="" style="endArrow=none;html=1;rounded=0;entryX=0.5;entryY=0.5;entryDx=0;entryDy=0;entryPerimeter=0;exitX=1;exitY=0.5;exitDx=0;exitDy=0;" edge="1" parent="1" source="BtpzoZKJI9H0tAGcX9OQ-5" target="BtpzoZKJI9H0tAGcX9OQ-6">
          <mxGeometry width="50" height="50" relative="1" as="geometry">
            <mxPoint x="518" y="587" as="sourcePoint" />
            <mxPoint x="568" y="537" as="targetPoint" />
          </mxGeometry>
        </mxCell>
        <mxCell id="BtpzoZKJI9H0tAGcX9OQ-8" value="" style="endArrow=none;html=1;rounded=0;exitX=0.96;exitY=0.195;exitDx=0;exitDy=0;exitPerimeter=0;" edge="1" parent="1" source="BtpzoZKJI9H0tAGcX9OQ-5">
          <mxGeometry width="50" height="50" relative="1" as="geometry">
            <mxPoint x="591" y="295" as="sourcePoint" />
            <mxPoint x="605" y="98" as="targetPoint" />
          </mxGeometry>
        </mxCell>
        <mxCell id="NAyNhvWMjs9HX_sWLAZr-1" style="edgeStyle=none;rounded=0;orthogonalLoop=1;jettySize=auto;html=1;exitX=0;exitY=1;exitDx=0;exitDy=0;exitPerimeter=0;" edge="1" parent="1" source="Df3wSzDKpOP-La8-ANA0-3" target="Df3wSzDKpOP-La8-ANA0-3">
          <mxGeometry relative="1" as="geometry" />
        </mxCell>
      </root>
    </mxGraphModel>
  </diagram>
  <diagram id="JTwW7b5qCbWW33LmlCvx" name="Página-4">
    <mxGraphModel dx="1050" dy="957" grid="0" gridSize="10" guides="1" tooltips="1" connect="1" arrows="1" fold="1" page="0" pageScale="1" pageWidth="827" pageHeight="1169" math="0" shadow="0">
      <root>
        <mxCell id="0" />
        <mxCell id="1" parent="0" />
        <mxCell id="4RYGTV8E5B-xSKZDcGPj-4" value="CRUD" style="ellipse;whiteSpace=wrap;html=1;" vertex="1" parent="1">
          <mxGeometry x="310" y="-56" width="120" height="50" as="geometry" />
        </mxCell>
        <mxCell id="4RYGTV8E5B-xSKZDcGPj-5" value="Reserva" style="ellipse;whiteSpace=wrap;html=1;" vertex="1" parent="1">
          <mxGeometry x="310" y="78" width="120" height="50" as="geometry" />
        </mxCell>
        <mxCell id="4RYGTV8E5B-xSKZDcGPj-6" value="Sistema de Biblioteca" style="text;html=1;align=center;verticalAlign=middle;whiteSpace=wrap;rounded=0;" vertex="1" parent="1">
          <mxGeometry x="262" y="-99" width="224" height="30" as="geometry" />
        </mxCell>
        <mxCell id="4RYGTV8E5B-xSKZDcGPj-7" value="Buscando livro" style="ellipse;whiteSpace=wrap;html=1;" vertex="1" parent="1">
          <mxGeometry x="310" y="18" width="120" height="50" as="geometry" />
        </mxCell>
        <mxCell id="4RYGTV8E5B-xSKZDcGPj-8" value="Devolver Livro" style="ellipse;whiteSpace=wrap;html=1;" vertex="1" parent="1">
          <mxGeometry x="310" y="136" width="120" height="50" as="geometry" />
        </mxCell>
        <mxCell id="4RYGTV8E5B-xSKZDcGPj-10" value="Gerenciar Usuários&amp;nbsp;" style="ellipse;whiteSpace=wrap;html=1;" vertex="1" parent="1">
          <mxGeometry x="314" y="202" width="120" height="50" as="geometry" />
        </mxCell>
        <mxCell id="4RYGTV8E5B-xSKZDcGPj-13" style="edgeStyle=none;rounded=0;orthogonalLoop=1;jettySize=auto;html=1;entryX=0;entryY=0.5;entryDx=0;entryDy=0;" edge="1" parent="1" source="4RYGTV8E5B-xSKZDcGPj-12" target="4RYGTV8E5B-xSKZDcGPj-4">
          <mxGeometry relative="1" as="geometry">
            <mxPoint x="161" y="27" as="sourcePoint" />
          </mxGeometry>
        </mxCell>
        <mxCell id="4RYGTV8E5B-xSKZDcGPj-12" value="Actor" style="shape=umlActor;verticalLabelPosition=bottom;verticalAlign=top;html=1;outlineConnect=0;" vertex="1" parent="1">
          <mxGeometry x="129" y="1" width="30" height="70" as="geometry" />
        </mxCell>
        <mxCell id="4RYGTV8E5B-xSKZDcGPj-15" value="" style="endArrow=classic;html=1;rounded=0;" edge="1" parent="1" source="4RYGTV8E5B-xSKZDcGPj-12">
          <mxGeometry width="50" height="50" relative="1" as="geometry">
            <mxPoint x="165" y="26" as="sourcePoint" />
            <mxPoint x="309" y="105" as="targetPoint" />
          </mxGeometry>
        </mxCell>
        <mxCell id="4RYGTV8E5B-xSKZDcGPj-16" value="" style="endArrow=classic;html=1;rounded=0;entryX=0;entryY=0.5;entryDx=0;entryDy=0;" edge="1" parent="1" source="4RYGTV8E5B-xSKZDcGPj-12" target="4RYGTV8E5B-xSKZDcGPj-7">
          <mxGeometry width="50" height="50" relative="1" as="geometry">
            <mxPoint x="163" y="29" as="sourcePoint" />
            <mxPoint x="260" y="6" as="targetPoint" />
          </mxGeometry>
        </mxCell>
        <mxCell id="4RYGTV8E5B-xSKZDcGPj-17" value="" style="endArrow=classic;html=1;rounded=0;entryX=0;entryY=0;entryDx=0;entryDy=0;" edge="1" parent="1" source="4RYGTV8E5B-xSKZDcGPj-12" target="4RYGTV8E5B-xSKZDcGPj-8">
          <mxGeometry width="50" height="50" relative="1" as="geometry">
            <mxPoint x="171" y="47" as="sourcePoint" />
            <mxPoint x="437" y="159" as="targetPoint" />
            <Array as="points" />
          </mxGeometry>
        </mxCell>
        <mxCell id="4RYGTV8E5B-xSKZDcGPj-20" style="edgeStyle=none;rounded=0;orthogonalLoop=1;jettySize=auto;html=1;entryX=1;entryY=0;entryDx=0;entryDy=0;" edge="1" parent="1" source="4RYGTV8E5B-xSKZDcGPj-19" target="4RYGTV8E5B-xSKZDcGPj-10">
          <mxGeometry relative="1" as="geometry" />
        </mxCell>
        <mxCell id="4RYGTV8E5B-xSKZDcGPj-21" style="edgeStyle=none;rounded=0;orthogonalLoop=1;jettySize=auto;html=1;entryX=1;entryY=0.5;entryDx=0;entryDy=0;" edge="1" parent="1" source="4RYGTV8E5B-xSKZDcGPj-19" target="4RYGTV8E5B-xSKZDcGPj-4">
          <mxGeometry relative="1" as="geometry">
            <mxPoint x="576" y="-22" as="sourcePoint" />
          </mxGeometry>
        </mxCell>
        <mxCell id="4RYGTV8E5B-xSKZDcGPj-19" value="Biblioteca&amp;nbsp;" style="shape=umlActor;verticalLabelPosition=bottom;verticalAlign=top;html=1;outlineConnect=0;" vertex="1" parent="1">
          <mxGeometry x="596" y="-45" width="30" height="70" as="geometry" />
        </mxCell>
        <mxCell id="4RYGTV8E5B-xSKZDcGPj-22" value="" style="endArrow=classic;html=1;rounded=0;entryX=1;entryY=0.5;entryDx=0;entryDy=0;" edge="1" parent="1" source="4RYGTV8E5B-xSKZDcGPj-19" target="4RYGTV8E5B-xSKZDcGPj-7">
          <mxGeometry width="50" height="50" relative="1" as="geometry">
            <mxPoint x="504" y="51" as="sourcePoint" />
            <mxPoint x="504" y="47" as="targetPoint" />
          </mxGeometry>
        </mxCell>
        <mxCell id="4RYGTV8E5B-xSKZDcGPj-23" value="" style="endArrow=classic;html=1;rounded=0;entryX=0.913;entryY=0.252;entryDx=0;entryDy=0;entryPerimeter=0;" edge="1" parent="1" source="4RYGTV8E5B-xSKZDcGPj-19" target="4RYGTV8E5B-xSKZDcGPj-5">
          <mxGeometry width="50" height="50" relative="1" as="geometry">
            <mxPoint x="491" y="84" as="sourcePoint" />
            <mxPoint x="541" y="34" as="targetPoint" />
          </mxGeometry>
        </mxCell>
        <mxCell id="4RYGTV8E5B-xSKZDcGPj-24" value="" style="endArrow=classic;html=1;rounded=0;entryX=0.973;entryY=0.356;entryDx=0;entryDy=0;entryPerimeter=0;" edge="1" parent="1" source="4RYGTV8E5B-xSKZDcGPj-19" target="4RYGTV8E5B-xSKZDcGPj-8">
          <mxGeometry width="50" height="50" relative="1" as="geometry">
            <mxPoint x="468" y="125" as="sourcePoint" />
            <mxPoint x="518" y="75" as="targetPoint" />
          </mxGeometry>
        </mxCell>
      </root>
    </mxGraphModel>
  </diagram>
  <diagram id="Xt7dQQzesEx76I3cHtRt" name="Página-5">
    <mxGraphModel dx="1052" dy="957" grid="0" gridSize="10" guides="1" tooltips="1" connect="1" arrows="1" fold="1" page="0" pageScale="1" pageWidth="827" pageHeight="1169" math="0" shadow="0">
      <root>
        <mxCell id="0" />
        <mxCell id="1" parent="0" />
        <mxCell id="3sYGPVCYUPVCsUp1B47n-2" value="" style="rounded=0;whiteSpace=wrap;html=1;fillColor=#dae8fc;strokeColor=#6c8ebf;" vertex="1" parent="1">
          <mxGeometry x="80" y="40" width="130" height="60" as="geometry" />
        </mxCell>
        <mxCell id="3sYGPVCYUPVCsUp1B47n-4" value="Usuário" style="text;html=1;align=center;verticalAlign=middle;whiteSpace=wrap;rounded=0;" vertex="1" parent="1">
          <mxGeometry x="115" y="55" width="60" height="30" as="geometry" />
        </mxCell>
        <mxCell id="Iq2sdQXeuTQY_FspEU3Y-1" value="" style="endArrow=none;dashed=1;html=1;rounded=0;entryX=0.5;entryY=1;entryDx=0;entryDy=0;exitX=0.5;exitY=0;exitDx=0;exitDy=0;" edge="1" parent="1" source="Iq2sdQXeuTQY_FspEU3Y-3" target="3sYGPVCYUPVCsUp1B47n-2">
          <mxGeometry width="50" height="50" relative="1" as="geometry">
            <mxPoint x="145" y="330" as="sourcePoint" />
            <mxPoint x="180" y="120" as="targetPoint" />
          </mxGeometry>
        </mxCell>
        <mxCell id="Iq2sdQXeuTQY_FspEU3Y-3" value="" style="rounded=0;whiteSpace=wrap;html=1;fillColor=#dae8fc;strokeColor=#6c8ebf;" vertex="1" parent="1">
          <mxGeometry x="80" y="370" width="130" height="60" as="geometry" />
        </mxCell>
        <mxCell id="Iq2sdQXeuTQY_FspEU3Y-4" value="Usuário" style="text;html=1;align=center;verticalAlign=middle;whiteSpace=wrap;rounded=0;" vertex="1" parent="1">
          <mxGeometry x="110" y="380" width="65" height="30" as="geometry" />
        </mxCell>
        <mxCell id="Iq2sdQXeuTQY_FspEU3Y-5" value="" style="endArrow=classic;html=1;rounded=0;" edge="1" parent="1">
          <mxGeometry width="50" height="50" relative="1" as="geometry">
            <mxPoint x="150" y="160" as="sourcePoint" />
            <mxPoint x="330" y="160" as="targetPoint" />
          </mxGeometry>
        </mxCell>
        <mxCell id="Iq2sdQXeuTQY_FspEU3Y-6" value="Biblioteca" style="rounded=0;whiteSpace=wrap;html=1;fillColor=#dae8fc;strokeColor=#6c8ebf;" vertex="1" parent="1">
          <mxGeometry x="270" y="40" width="130" height="60" as="geometry" />
        </mxCell>
        <mxCell id="Iq2sdQXeuTQY_FspEU3Y-7" value="Biblioteca" style="rounded=0;whiteSpace=wrap;html=1;fillColor=#dae8fc;strokeColor=#6c8ebf;" vertex="1" parent="1">
          <mxGeometry x="270" y="370" width="130" height="60" as="geometry" />
        </mxCell>
        <mxCell id="Iq2sdQXeuTQY_FspEU3Y-8" value="Sistema da&amp;nbsp;&lt;div&gt;Biblioteca&amp;nbsp;&lt;/div&gt;" style="rounded=0;whiteSpace=wrap;html=1;fillColor=#dae8fc;strokeColor=#6c8ebf;" vertex="1" parent="1">
          <mxGeometry x="450" y="40" width="130" height="60" as="geometry" />
        </mxCell>
        <mxCell id="Iq2sdQXeuTQY_FspEU3Y-9" value="Livro" style="rounded=0;whiteSpace=wrap;html=1;fillColor=#dae8fc;strokeColor=#6c8ebf;" vertex="1" parent="1">
          <mxGeometry x="630" y="40" width="120" height="60" as="geometry" />
        </mxCell>
        <mxCell id="Iq2sdQXeuTQY_FspEU3Y-10" value="Livro" style="rounded=0;whiteSpace=wrap;html=1;fillColor=#dae8fc;strokeColor=#6c8ebf;" vertex="1" parent="1">
          <mxGeometry x="630" y="370" width="130" height="60" as="geometry" />
        </mxCell>
        <mxCell id="Iq2sdQXeuTQY_FspEU3Y-11" value="" style="rounded=0;whiteSpace=wrap;html=1;fillColor=#dae8fc;strokeColor=#6c8ebf;" vertex="1" parent="1">
          <mxGeometry x="460" y="370" width="110" height="60" as="geometry" />
        </mxCell>
        <mxCell id="Iq2sdQXeuTQY_FspEU3Y-12" value="" style="endArrow=none;dashed=1;html=1;rounded=0;entryX=0.5;entryY=1;entryDx=0;entryDy=0;exitX=0.5;exitY=0;exitDx=0;exitDy=0;" edge="1" parent="1" source="Iq2sdQXeuTQY_FspEU3Y-7" target="Iq2sdQXeuTQY_FspEU3Y-6">
          <mxGeometry width="50" height="50" relative="1" as="geometry">
            <mxPoint x="310" y="220" as="sourcePoint" />
            <mxPoint x="360" y="170" as="targetPoint" />
          </mxGeometry>
        </mxCell>
        <mxCell id="Iq2sdQXeuTQY_FspEU3Y-13" value="" style="endArrow=none;dashed=1;html=1;rounded=0;entryX=0.5;entryY=1;entryDx=0;entryDy=0;exitX=0.5;exitY=0;exitDx=0;exitDy=0;" edge="1" parent="1" source="Iq2sdQXeuTQY_FspEU3Y-11" target="Iq2sdQXeuTQY_FspEU3Y-8">
          <mxGeometry width="50" height="50" relative="1" as="geometry">
            <mxPoint x="515" y="367" as="sourcePoint" />
            <mxPoint x="550" y="160" as="targetPoint" />
          </mxGeometry>
        </mxCell>
        <mxCell id="Iq2sdQXeuTQY_FspEU3Y-14" value="" style="endArrow=none;dashed=1;html=1;rounded=0;entryX=0.56;entryY=1.043;entryDx=0;entryDy=0;entryPerimeter=0;exitX=0.5;exitY=0;exitDx=0;exitDy=0;" edge="1" parent="1" source="Iq2sdQXeuTQY_FspEU3Y-10" target="Iq2sdQXeuTQY_FspEU3Y-9">
          <mxGeometry width="50" height="50" relative="1" as="geometry">
            <mxPoint x="650" y="210" as="sourcePoint" />
            <mxPoint x="700" y="160" as="targetPoint" />
            <Array as="points" />
          </mxGeometry>
        </mxCell>
        <mxCell id="Iq2sdQXeuTQY_FspEU3Y-15" value="" style="endArrow=classic;html=1;rounded=0;" edge="1" parent="1">
          <mxGeometry width="50" height="50" relative="1" as="geometry">
            <mxPoint x="340" y="210" as="sourcePoint" />
            <mxPoint x="520" y="210" as="targetPoint" />
          </mxGeometry>
        </mxCell>
        <mxCell id="Iq2sdQXeuTQY_FspEU3Y-16" value="" style="endArrow=classic;html=1;rounded=0;" edge="1" parent="1">
          <mxGeometry width="50" height="50" relative="1" as="geometry">
            <mxPoint x="510" y="260" as="sourcePoint" />
            <mxPoint x="700" y="260" as="targetPoint" />
          </mxGeometry>
        </mxCell>
        <mxCell id="Iq2sdQXeuTQY_FspEU3Y-17" value="" style="endArrow=classic;html=1;rounded=0;" edge="1" parent="1">
          <mxGeometry width="50" height="50" relative="1" as="geometry">
            <mxPoint x="700" y="320" as="sourcePoint" />
            <mxPoint x="510" y="320" as="targetPoint" />
          </mxGeometry>
        </mxCell>
        <mxCell id="Iq2sdQXeuTQY_FspEU3Y-18" value="Solicita empréstimo" style="text;html=1;align=center;verticalAlign=middle;whiteSpace=wrap;rounded=0;" vertex="1" parent="1">
          <mxGeometry x="200" y="130" width="60" height="30" as="geometry" />
        </mxCell>
        <mxCell id="Iq2sdQXeuTQY_FspEU3Y-19" value="Verificar Disponbilidade" style="text;html=1;align=center;verticalAlign=middle;whiteSpace=wrap;rounded=0;" vertex="1" parent="1">
          <mxGeometry x="390" y="180" width="60" height="30" as="geometry" />
        </mxCell>
        <mxCell id="Iq2sdQXeuTQY_FspEU3Y-20" value="Registrar Empréstimo" style="text;html=1;align=center;verticalAlign=middle;whiteSpace=wrap;rounded=0;" vertex="1" parent="1">
          <mxGeometry x="570" y="230" width="60" height="30" as="geometry" />
        </mxCell>
        <mxCell id="Iq2sdQXeuTQY_FspEU3Y-21" value="Atualizar Status" style="text;html=1;align=center;verticalAlign=middle;whiteSpace=wrap;rounded=0;" vertex="1" parent="1">
          <mxGeometry x="570" y="290" width="60" height="30" as="geometry" />
        </mxCell>
        <mxCell id="Iq2sdQXeuTQY_FspEU3Y-23" value="SISTEMA DE SEQUENCIA" style="text;html=1;align=center;verticalAlign=middle;whiteSpace=wrap;rounded=0;" vertex="1" parent="1">
          <mxGeometry x="319" y="-30" width="190" height="30" as="geometry" />
        </mxCell>
      </root>
    </mxGraphModel>
  </diagram>
</mxfile>
